# xmcd
#
# Track frame offsets:
#	150
#	14921
#	34502
#	54566
#	69587
#
# Disc length: 1313 seconds
#
# Revision: 13
# Processed by: cddbd v1.5.2PL0 Copyright (c) Steve Scherf et al.
# Submitted via: Jack! The Knife 20 Magnifico
#
DISCID=40051f05
DTITLE=Judas Priest - Redeemer Of Souls (Bonus CD)
DYEAR=2014
DGENRE=Metal
TTITLE0=Snakebite
TTITLE1=Tears Of Blood
TTITLE2=Creatures
TTITLE3=Bring It On
TTITLE4=Never Forget
EXTD=Mike Exeter and Glenn Tipton
EXTT0=Tipton, Halford, Faulkner
EXTT1=Tipton, Halford, Faulkner
EXTT2=Tipton, Halford, Faulkner
EXTT3=Tipton, Halford, Faulkner
EXTT4=Tipton, Halford, Faulkner
PLAYORDER=
